<svg width="24" height="24" viewBox="0 0 24 24" fill="none" xmlns="http://www.w3.org/2000/svg">
<path fill-rule="evenodd" clip-rule="evenodd" d="M7.69524 13.3908C7.05047 13.3908 6.52666 12.867 6.52666 12.2223C6.52666 11.5794 7.05047 11.0556 7.69524 11.0556C8.34 11.0556 8.86381 11.5794 8.86381 12.2223C8.86381 12.867 8.34 13.3908 7.69524 13.3908ZM12.2381 13.3908C11.5933 13.3908 11.0695 12.867 11.0695 12.2223C11.0695 11.5794 11.5933 11.0556 12.2381 11.0556C12.8829 11.0556 13.4067 11.5794 13.4067 12.2223C13.4067 12.867 12.8829 13.3908 12.2381 13.3908ZM15.6125 12.2223C15.6125 12.867 16.1363 13.3908 16.781 13.3908C17.4258 13.3908 17.9496 12.867 17.9496 12.2223C17.9496 11.5794 17.4258 11.0556 16.781 11.0556C16.1363 11.0556 15.6125 11.5794 15.6125 12.2223Z" fill="white"/>
<path fill-rule="evenodd" clip-rule="evenodd" d="M12.02 2C6.21 2 2 6.74612 2 12.015C2 13.6975 2.49 15.4291 3.35 17.0115C3.51 17.2729 3.53 17.6024 3.42 17.9139L2.75 20.1572C2.6 20.698 3.06 21.0976 3.57 20.9374L5.59 20.3375C6.14 20.1572 6.57 20.3866 7.08 20.698C8.54 21.5583 10.36 22 12 22C16.96 22 22 18.1642 22 11.985C22 6.65598 17.7 2 12.02 2Z" stroke="white" stroke-width="1.5" stroke-linecap="round" stroke-linejoin="round"/>
</svg>
