<svg width="24" height="24" viewBox="0 0 24 24" fill="none" xmlns="http://www.w3.org/2000/svg">
<path d="M10.1172 17.9866H2.88306" stroke="white" stroke-width="1.5" stroke-linecap="round" stroke-linejoin="round"/>
<path fill-rule="evenodd" clip-rule="evenodd" d="M21.1179 17.9866C21.1179 19.5772 19.8285 20.8666 18.2379 20.8666C16.6473 20.8666 15.3579 19.5772 15.3579 17.9866C15.3579 16.3949 16.6473 15.1066 18.2379 15.1066C19.8285 15.1066 21.1179 16.3949 21.1179 17.9866Z" stroke="white" stroke-width="1.5" stroke-linecap="round" stroke-linejoin="round"/>
<path d="M13.8827 6.26212H21.118" stroke="white" stroke-width="1.5" stroke-linecap="round" stroke-linejoin="round"/>
<path fill-rule="evenodd" clip-rule="evenodd" d="M2.88259 6.26214C2.88259 7.85391 4.172 9.14214 5.76259 9.14214C7.35318 9.14214 8.64259 7.85391 8.64259 6.26214C8.64259 4.67155 7.35318 3.38214 5.76259 3.38214C4.172 3.38214 2.88259 4.67155 2.88259 6.26214Z" stroke="white" stroke-width="1.5" stroke-linecap="round" stroke-linejoin="round"/>
</svg>
